<?xml version="1.0" encoding="UTF-8"?><svg id="Layer_1" xmlns="http://www.w3.org/2000/svg" viewBox="0 0 808.52006 160.22271"><g id="bento"><path d="M192.61249,153.26069c-9.42101-3.62235-11.72827-13.63589-12.34999-23.59393-.61323-9.82206-.94493-19.66178-1.133-29.50053-.33092-17.3121-.4517-34.6381,.24874-51.94331,.53985-13.3382-2.82293-33.65785,12.29977-40.03613,7.52506-3.1738,15.71529-2.63585,23.592-1.89224,7.15616,.67559,13.59019,2.9598,17.90872,9.11741,7.49569,10.68779,.79693,22.65214,1.08927,34.32127,4.91036,.39371,10.36704-1.0632,15.38945-1.11929,5.29616-.05915,10.61604,.37782,15.76506,1.6621,11.50438,2.86944,21.88256,10.03968,28.63652,19.78486,6.40094,9.23581,8.69758,19.6563,8.722,30.72215,.02272,10.29679-2.98614,19.56479-7.03951,29.06718-4.26904,10-11.2002,17.06885-20.80029,21.2002-9.6001,4.13428-23.13428,6.19971-40.60012,6.19971-12.87865,0-25.96701-.48143-38.61738-3.08722-1.11496-.22966-2.15011-.53269-3.11123-.90224Zm64.94011-26.45091c6.3163-11.84306,5.46914-31.75048,.79316-42.03763-7.93163-17.44958-23.02549-16.76252-30.93335-.79316-5.61768,11.34451-5.03894,32.17823,1.16917,42.34937,7.55562,12.37886,22.62572,12.37886,28.97102,.48142Z" fill="#00a89d"/><path d="M369.12455,109.92234c0,8.66895,4.13135,13,12.3999,13,4.7998,0,11.06543-1.63086,18.7998-4.8999,7.73145-3.26562,9.31202-3.0655,12.88606-2.69893,4.50812,.46237,9.38959,1.64733,13.52436,9.24742,4.13086,7.6001,2.4522,15.30551,.57796,18.37926-2.88982,4.7393-3.92295,7.50682-14.58799,10.17235-10.66895,2.66504-21.10059,4-31.30029,4s-18.73438-.7998-25.6001-2.3999c-6.86865-1.6001-12.46875-3.63135-16.7998-6.1001-4.33447-2.46582-8.13428-5.5-11.3999-9.1001-3.26904-3.6001-5.7002-7.03125-7.30029-10.2998-1.59961-3.26562-2.86865-6.8999-3.7998-10.8999-1.33447-5.86572-2-11.93164-2-18.2002,0-24.26562,6.33105-41,19-50.2002,6.26562-4.66553,13.26562-7.93115,21-9.7998,7.73145-1.86572,16.86572-2.7998,27.3999-2.7998,33.73096,0,50.6001,11.73438,50.6001,35.19971,0,24.93457-18.93457,37.3999-56.7998,37.3999h-6.6001Zm-2.27139-45.64431c-4.27903,7.99992-3.3488,19.72074,.18125,24.25062,4.32163,5.54565,12.28375,5.51654,17.12091,1.05146,4.54433-4.19476,6.27891-16.60474,3.3488-23.99977-3.90694-9.86037-16.24515-9.53926-20.65096-1.30231Z" fill="#00a89d"/><path d="M566.47106,87.79305c.00001,.03919-.00071,.07363-.00272,.11298-.39137,7.6828-.74569,15.36767-1.07364,23.05342-.27789,6.51093-.73705,13.08273-.95904,19.56-.16763,4.89115,.09006,10.00905-1.45448,14.72377-1.94367,5.93304-6.9526,7.6862-12.78024,8.20354-6.19341,.54981-12.41189,.80576-18.62928,.80576-8.06934,0-10.7963-.98764-12.9191-2.20066-6.83174-3.90386-5.31167-12.96372-4.53799-19.48345,.63867-5.38202,1.16864-10.77908,1.48236-16.19047,.5995-10.3409,1.32142-22.56787-3.14491-32.2294-1.82967-3.95771-4.52792-3.83008-6.92831-3.83008-3.73438,0-5.59961,1.7998-5.59961,5.3999,0,0-.08199,50.43347-1.58983,56.2139-1.14325,4.38275-6.6064,11.0969-14.13765,11.96262-7.53418,.86865-10.95992,.35763-19.02535,.35763-8.06836,0-9.46744-.35763-12.94748-1.66265-4.92987-1.8487-5.97244-7.18707-6.09006-8.91753-.56315-8.28504-.81579-16.59279-1.00438-24.89361-.33103-14.57038-.38806-29.15173-.13879-43.72387,.20591-12.03742-1.7587-29.717,12.48334-34.93745,7.79262-2.85607,16.85953-3.71393,24.98465-1.89456,7.32573,1.64037,16.79876,7.50472,16.32368,16.21858,0,0,.16784,.75529,1.1438-1.22712,3.57644-7.26465,10.39104-12.05954,19.34582-14.96181,3.86523-1.2002,8.13086-1.7998,12.7998-1.7998,13.46582,0,22.56543,4.03418,27.2998,12.09961,4.72626,8.06001,7.09442,21.14025,7.0996,39.24072Z" fill="#00a89d"/><path d="M649.73547,145.4586c-.09617,3.22642-.48207,6.62124-2.72082,8.87422-2.2649,2.2793-5.75767,2.69166-8.96612,2.8672-8.96327,.4904-17.97266,.13441-26.86929-1.06171-3.87195-.52057-11.48353-1.7614-13.70118-5.40872-1.0213-1.67971-1.30485-3.6933-1.52055-5.64727-1.97481-17.88915,.56451-35.80308,.56451-53.71882,0-3.58897,.00006-7.17794,0-10.76691-.00002-.88599,.38175-3.20425-.20635-3.92486-1.29499-1.58679-6.47708,.02259-8.51381-.20954-2.82476-.32193-5.6759-1.58865-7.25431-3.95329-1.45325-2.17714-1.64365-4.93676-1.70034-7.55376-.09674-4.4655,.0635-8.93656,.47967-13.38368,.28061-2.99855-.0847-5.30617,1.7627-7.8557,1.50434-2.0761,3.67358-3.68006,6.1011-4.50502,.96488-.3279,9.33135-.85422,9.33134-.28985,.00002-4.14112,.08274-8.2917-.00006-12.43187-.07724-3.86232-.8597-7.68934-.45864-11.56463,.33929-3.27852,1.50232-6.57723,3.83815-8.90268,3.14597-3.13199,7.83521-4.02826,12.24347-4.55144,7.9277-.94086,15.94083-1.16068,23.90819-.65584,2.58443,.16376,5.24743,.42772,7.52339,1.66308,3.11391,1.69018,5.0755,5.0135,5.92868,8.45228,.62268,2.50972,1.55202,27.96098,1.01781,27.9925,4.40373-.25982,9.87968-.99039,14.17499,.63495,6.07187,2.29759,5.82402,8.83469,5.82402,14.36554,0,6.30348,1.76893,19.46019-5.80149,22.51516-1.43262,.57796-3.03279,.50813-4.5756,.42928-2.40548-.12294-8.51465-1.54754-9.61344,.6156-.46104,.90763-.00946,3.25072-.00946,4.26046v12.72256c0,16.66958-.48959,33.28596-.7638,49.96965-.00556,.33806-.01251,.67961-.02275,1.02307Z" fill="#00a89d"/><path d="M745.11967,156.92234c-10,0-18.59961-.86914-25.7998-2.59961-7.2002-1.73145-13.73438-4.80029-19.59961-9.2002-12.13477-8.7998-18.2002-25.2002-18.2002-49.2002,0-21.33105,6.2002-36.59961,18.59961-45.7998,11.60059-8.53125,26.60059-12.7998,45-12.7998,7.86621,0,14.60059,.36865,20.2002,1.09961,5.60059,.73438,11.2998,2.30029,17.10059,4.7002,5.7998,2.3999,10.46484,5.66895,14,9.7998,3.53125,4.13477,6.43066,9.83447,8.69922,17.1001,2.26562,7.26904,3.40039,15.8999,3.40039,25.8999,0,20.26904-5.73438,35.5-17.2002,45.7002-11.46875,10.2002-26.86816,15.2998-46.2002,15.2998Zm-12.19662-35.83987c7.4974,11.2083,23.27359,11.04458,29.08446-.81928,4.91568-10.03619,6.34942-27.24108,1.0241-41.37367-6.35297-16.85981-25.60252-16.18079-31.95194,.40964-4.5761,11.95691-5.06555,31.45474,1.84338,41.78331Z" fill="#00a89d"/></g><g id="lunchbox"><rect width="160.22271" height="160.22271" rx="12" ry="12" fill="#f6f3e7"/><rect x="8.01114" y="8.01114" width="64.08908" height="64.08908" rx="8.34444" ry="8.34444" fill="#cec5a1"/><rect x="8.01114" y="80.11135" width="64.08908" height="72.10022" rx="8.34444" ry="8.34444" fill="#cec5a1"/><rect x="80.11135" y="8.01114" width="72.10022" height="144.20044" rx="8.34444" ry="8.34444" fill="#cec5a1"/><g id="chicken"><path d="M133.9435,110.60171l-2.76167-11.75759c-1.71743,.4837-9.23817,1.77573-10.98798,2.09708l2.71108,11.74811c-2.69663-.10319-5.36758,1.20875-6.88706,3.66473-2.25161,3.63935-1.13021,8.41223,2.50914,10.66384s8.41432,1.12673,10.66593-2.51262c.92526-1.49553,1.13365-1.82373,1.38025-3.70622,.83204,1.49378,1.4076,2.14405,3.05062,3.16056,3.63937,2.25162,8.41429,1.12683,10.66593-2.51256,2.24949-3.63592,1.12465-8.41086-2.51472-10.66249-2.46967-1.52795-5.46285-1.4968-7.83152-.18283Z" fill="#bc997a"/><path d="M90.69833,41.52003c-6.82124,12.40238,1.4951,31.3287,6.59794,39.12736,3.9089,5.97397,19.02859,20.45919,21.35592,21.89908,1.44065,.89131,14.39815-1.65528,15.2937-3.10278,1.53864-2.48696,7.79092-24.19899,8.60263-31.13356,1.16272-9.93338,.67962-29.00918-12.49204-37.15829-13.59108-8.4086-31.56083-3.8089-39.35815,10.36819Z" fill="#754c24"/></g><g><path d="M25.20824,19.94037c5.34101,1.09474,9.86656,5.46826,11.1431,10.76875" fill="none" stroke="#42210b" stroke-linecap="round" stroke-linejoin="round" stroke-width="4"/><path d="M61.67663,41.34223c-.40927,3.77025-2.13484,5.29607-2.17331,8.614-.03344,2.69818,1.0216,5.64988-1.6051,8.73163-1.72573,2.02273-4.40113,3.6354-6.90527,2.74186q-.97668-.35046-1.96181-.86061c-.38876,1.08428-.39798,1.03473-.78711,1.95546-1.029,2.45148-4.02628,3.33287-6.68586,3.24036-4.04325-.14311-5.50847-2.91707-7.52081-4.71479-2.47512-2.21156-4.76343-1.97064-7.82021-4.21531-3.54636-2.60458-5.60887-6.99072-6.26731-11.34363-.65741-4.35057,.56852-9.05851,3.64801-12.20201,3.04776-3.10707,6.91872-3.58641,10.06153-2.36468,.76161,.2391,3.45516-.86444,3.85709-1.90873,1.0472-2.69384,4.21252-5.36043,8.56569-5.50812,4.39808-.14778,8.69795,2.12795,11.46221,5.55116,2.76192,3.42426,4.60678,7.90898,4.13224,12.28341Z" fill="#7f2229"/><path d="M33.71304,24.97619c-1.68617-2.21938-2.15662-5.30742-1.20784-7.92823,1.1782-3.25453,4.19935-5.42842,7.23878-7.12036,.19176-.10675,.43124-.04178,.55106,.14209,1.74826,2.68275,2.05099,6.26258,.75029,9.19282-1.35378,3.04982-4.39457,5.28345-7.70968,5.66318" fill="#147c43"/></g><g><path d="M64.94476,109.09321c-.42612,.40996-.66191,.98641-.6226,1.58547l1.86112,28.32031c.1977,3.00833-2.08627,5.60487-5.09525,5.79254l-36.01695,2.2464c-3.0019,.18723-5.5872-2.09451-5.77443-5.09641l-1.74699-28.00961c-.03652-.58545-.36334-1.09937-.84848-1.41129-3.51738-2.2615-4.50794-6.26864-4.49439-8.25008,.0268-3.91826,2.35255-11.52962,13.48362-10.7669,2.2849,.15656,5.60745-5.23936,13.44986-5.65955,9.79707-.52491,11.87996,4.64356,14.31577,4.04344,9.00721-2.21914,14.0988,3.85951,14.56248,7.43325,.45965,3.54269,.15934,6.66192-3.07378,9.77243Z" fill="#d3834c"/><path d="M61.79106,107.5643c-.38428,.35753-.57742,.89517-.54175,1.43973l1.99159,28.30606c.177,2.5156-1.73081,4.69306-4.24786,4.84824l-32.61216,2.01063c-2.53103,.15604-4.32891-1.81528-4.44304-4.34854l-1.63052-27.95738c-.03319-.5322-.31241-1.01413-.74578-1.28452-1.9804-1.23561-3.37022-3.46562-3.53323-6.07918-.26019-4.17173,2.75701-9.05088,11.60657-8.0713,1.99395,.22072,4.79761-5.58144,11.66267-5.94694,8.57613-.45659,10.55566,5.22869,12.64245,4.53615,6.74382-2.23805,12.03603,2.17997,12.29622,6.35172,.15384,2.46651-.80051,4.66515-2.44518,6.19532Z" fill="#ffe8bd"/></g></g></svg>